:version 1.10
:name ASF
:units
  mass 1
  length 1
  angle deg
:documentation
  ASF file generated by Kaydara
:root
  axis xyz
  order  tx ty tz rx ry rz
  position 0 0 0
  orientation 0 0 0
:bonedata
  begin
    id 1
    name RightUpLegDummy
    direction -0.718183 -0.695806 0.00816078
    length 4.904
    axis 0 0 0 xyz
  end
  begin
    id 2
    name RightUpLeg
    direction 3.53989e-006 -0.995788 0.0916897
    length 17.4976
    axis -3.49089 -0.000906621 0.000287158 xyz
    dof rx ry rz
  end
  begin
    id 3
    name RightLeg
    direction 0.00371093 -0.995096 -0.0988418
    length 16.5821
    axis 3.68512 0.0193738 -0.131023 xyz
    dof rx ry rz
  end
  begin
    id 4
    name RightFoot
    direction 0.000791514 -0.46099 0.887405
    length 3.77069
    axis 4.84075e-005 -0.120479 -0.188788 xyz
    dof rx ry rz
  end
  begin
    id 5
    name RightToes
    direction 0.00124746 -0.014064 0.9999
    length 3.85082
    axis 0.00048216 0.542163 -0.142577 xyz
    dof rx ry rz
  end
  begin
    id 6
    name SpineDummy
    direction 8.36599e-015 1 5.97571e-016
    length 4.6813
    axis 0 0 0 xyz
  end
  begin
    id 7
    name Spine
    direction -4.63632e-008 0.999988 0.00495137
    length 10.1015
    axis -0.00138897 0.000121419 3.25764e-006 xyz
    dof rx ry rz
  end
  begin
    id 8
    name Spine1
    direction 0 0 0
    length 0
    axis -0.00138896 0.000121452 2.39764e-006 xyz
    dof rx ry rz
  end
  begin
    id 9
    name HEadDummy
    direction -3.91456e-008 0.999999 0.00127422
    length 3.43865
    axis -0.00138896 0.000121452 2.39764e-006 xyz
  end
  begin
    id 10
    name HEad
    direction -0.0222688 0.980941 0.193023
    length 5.12695
    axis -0.00138895 0.000121452 2.39764e-006 xyz
    dof rx ry rz
  end
  begin
    id 11
    name LeftShoulder1Dummy
    direction 0.998891 -0.0402508 -0.0244456
    length 3.5433
    axis -0.00138896 0.000121452 2.39764e-006 xyz
  end
  begin
    id 12
    name LeftShoulder1
    direction 0.99951 -0.000327743 0.0313091
    length 4.05031
    axis -0.00138896 0.000121452 2.39764e-006 xyz
    dof rx ry rz
  end
  begin
    id 13
    name LeftArm
    direction 0.998561 -0.00100054 -0.0536182
    length 10.3537
    axis -23.1894 0.134784 0.96751 xyz
    dof rx ry rz
  end
  begin
    id 14
    name LeftForeArm
    direction 0.998903 0.00866434 0.046012
    length 8.70632
    axis -9.91835 -0.06569 -0.177792 xyz
    dof rx ry rz
  end
  begin
    id 15
    name LeftHand
    direction 0.992938 -0.0411636 0.11126
    length 5.32135
    axis -0.00960227 -0.00340091 0.185174 xyz
    dof rx ry rz
  end
  begin
    id 16
    name RightShoulderDummy
    direction -0.998891 -0.0402509 -0.0244414
    length 3.5433
    axis -0.00138896 0.000121452 2.39764e-006 xyz
  end
  begin
    id 17
    name RightShoulder
    direction -0.99951 -0.000327827 0.0313133
    length 4.05031
    axis 0.215806 0.000203644 -0.00680151 xyz
    dof rx ry rz
  end
  begin
    id 18
    name RightArm
    direction -0.998573 -0.000999583 -0.053403
    length 10.3947
    axis -23.2009 -0.134239 -0.9641 xyz
    dof rx ry rz
  end
  begin
    id 19
    name RightForeArm
    direction -0.998898 0.00868026 0.0461306
    length 8.68355
    axis -9.92322 0.0658061 0.178869 xyz
    dof rx ry rz
  end
  begin
    id 20
    name RightHand
    direction -0.992843 -0.0414603 0.112003
    length 5.28593
    axis -0.00960634 0.00330671 -0.185226 xyz
    dof rx ry rz
  end
  begin
    id 21
    name LeftUpLegDummy
    direction 0.718183 -0.695806 0.00816078
    length 4.904
    axis 0 0 0 xyz
  end
  begin
    id 22
    name LeftUpLeg
    direction -6.8115e-006 -0.995793 0.0916336
    length 17.4976
    axis -3.48766 0.00143441 -0.000523914 xyz
    dof rx ry rz
  end
  begin
    id 23
    name LeftLeg
    direction -0.00601357 -0.995091 -0.0987824
    length 16.5821
    axis 3.68177 -0.00654038 -0.00028478 xyz
    dof rx ry rz
  end
  begin
    id 24
    name LeftFoot
    direction -0.00417578 -0.460984 0.887399
    length 3.77069
    axis 1.87232e-006 4.66002e-005 -8.1837e-006 xyz
    dof rx ry rz
  end
  begin
    id 25
    name LeftToes
    direction 0.00818058 -0.00485161 0.999955
    length 3.85048
    axis 1.06246e-005 4.65855e-005 -8.18502e-006 xyz
    dof rx ry rz
  end
:hierarchy
  begin
    root RightUpLegDummy SpineDummy LeftUpLegDummy
    RightUpLegDummy RightUpLeg
    RightUpLeg RightLeg
    RightLeg RightFoot
    RightFoot RightToes
    SpineDummy Spine
    Spine Spine1
    Spine1 HEadDummy LeftShoulder1Dummy RightShoulderDummy
    HEadDummy HEad
    LeftShoulder1Dummy LeftShoulder1
    LeftShoulder1 LeftArm
    LeftArm LeftForeArm
    LeftForeArm LeftHand
    RightShoulderDummy RightShoulder
    RightShoulder RightArm
    RightArm RightForeArm
    RightForeArm RightHand
    LeftUpLegDummy LeftUpLeg
    LeftUpLeg LeftLeg
    LeftLeg LeftFoot
    LeftFoot LeftToes
  end

:SAMPLES-PER-SECOND 30
:FULLY-SPECIFIED
:DEGREES
1
root  -4.01068 38.9817 11.4835 -179.915 51.9482 176.735
RightUpLeg  -20.0513 -12.1165 -4.08255
RightLeg  20.9158 -11.7578 -5.12289
RightFoot  -0.614469 -0.84468 8.93308
RightToes  -1.39699e-009 0 -3.6325e-017
Spine  10.7632 0.119787 -14.8063
Spine1  29.8938 -2.73177 1.95871
HEad  -33.6184 41.2868 -21.3008
LeftShoulder1  2.80932 -8.01017 -17.8034
LeftArm  8.77671 -15.7092 -57.4893
LeftForeArm  15.0655 -77.0314 -69.2256
LeftHand  -0.199707 4.33647 21.3719
RightShoulder  0.774536 0.744151 11.1013
RightArm  1.78591 -6.09528 61.0233
RightForeArm  136.781 67.2963 152.728
RightHand  -1.57063 4.4907 -18.5793
LeftUpLeg  -0.836981 1.22865 7.97977
LeftLeg  9.77948 -11.7575 2.173
LeftFoot  -13.4865 -0.18455 -14.0965
LeftToes  3.40148e-010 1.80944e-010 1.01921e-010
2
root  -4.00391 38.9783 11.4607 -179.935 52.0582 176.694
RightUpLeg  -20.0831 -12.011 -4.12744
RightLeg  20.9787 -11.7423 -5.13087
RightFoot  -0.646074 -0.846629 8.97457
RightToes  -1.39699e-009 0 -3.6325e-017
Spine  10.7408 0.0787075 -14.7146
Spine1  29.8872 -2.70861 1.84684
HEad  -33.5891 41.3532 -21.2942
LeftShoulder1  2.80799 -8.01982 -17.7946
LeftArm  8.68716 -15.7013 -57.528
LeftForeArm  15.0206 -77.0065 -68.8242
LeftHand  -0.244627 4.09034 21.3307
RightShoulder  0.772805 0.73263 11.1289
RightArm  1.7932 -6.01528 60.9755
RightForeArm  136.652 67.2884 152.723
RightHand  -1.57414 4.5134 -18.5785
LeftUpLeg  -0.815494 1.13165 7.92107
LeftLeg  9.84178 -11.5516 2.1797
LeftFoot  -13.555 -0.192497 -14.0901
LeftToes  3.40148e-010 1.80944e-010 1.01921e-010
3
root  -3.99686 38.9755 11.4359 -179.912 52.1593 176.732
RightUpLeg  -20.0761 -11.9172 -4.12678
RightLeg  21.0146 -11.7326 -5.13685
RightFoot  -0.668586 -0.847741 9.00523
RightToes  -1.39699e-009 0 -3.6325e-017
Spine  10.7027 0.0132751 -14.5573
Spine1  29.9432 -2.69271 1.70648
HEad  -33.53 41.4323 -21.2118
LeftShoulder1  2.8048 -8.03423 -17.7168
LeftArm  8.50308 -15.6746 -57.6063
LeftForeArm  15.192 -76.9928 -68.5252
LeftHand  -0.318082 3.71512 21.6749
RightShoulder  0.770672 0.733825 11.1411
RightArm  1.81194 -5.91856 60.968
RightForeArm  136.581 67.3201 152.675
RightHand  -1.58208 4.53362 -18.6329
LeftUpLeg  -0.785782 1.00697 7.89521
LeftLeg  9.92671 -11.3518 2.21836
LeftFoot  -13.6401 -0.20277 -14.1031
LeftToes  3.40148e-010 1.80944e-010 1.01921e-010
4
root  -3.98759 38.9739 11.4131 -179.867 52.2816 176.833
RightUpLeg  -20.0207 -11.8024 -4.08221
RightLeg  21.0137 -11.7288 -5.13501
RightFoot  -0.680094 -0.847363 9.01491
RightToes  -1.39699e-009 0 -3.6325e-017
Spine  10.6462 -0.034504 -14.4234
Spine1  30.0852 -2.70068 1.64851
HEad  -33.555 41.5328 -21.2645
LeftShoulder1  2.8038 -8.03495 -17.6846
LeftArm  8.20702 -15.7569 -57.6585
LeftForeArm  15.0475 -76.9624 -68.0967
LeftHand  -0.357368 3.52428 21.9193
RightShoulder  0.768476 0.740355 11.0427
RightArm  1.76765 -5.74688 61.0293
RightForeArm  136.7 67.3904 152.599
RightHand  -1.57791 4.53522 -18.5824
LeftUpLeg  -0.718787 0.952114 7.92614
LeftLeg  10.0103 -11.2048 2.24682
LeftFoot  -13.7199 -0.21223 -14.1064
LeftToes  3.40148e-010 1.80944e-010 1.01921e-010
5
root  -3.97658 38.9726 11.3928 -179.878 52.4439 176.904
RightUpLeg  -19.9403 -11.6844 -4.05168
RightLeg  21.0107 -11.6857 -5.11655
RightFoot  -0.696076 -0.845338 9.0035
RightToes  -1.39699e-009 0 -3.6325e-017
Spine  10.6255 -0.0472037 -14.3696
Spine1  30.2083 -2.71937 1.66496
HEad  -33.6702 41.6438 -21.467
LeftShoulder1  2.8072 -7.99807 -17.8029
LeftArm  7.90267 -15.9594 -57.6201
LeftForeArm  14.4339 -76.906 -67.4702
LeftHand  -0.33944 3.60948 21.7873
RightShoulder  0.76642 0.753911 10.8834
RightArm  1.61314 -5.5079 61.0588
RightForeArm  136.927 67.4613 152.535
RightHand  -1.55526 4.53923 -18.3169
LeftUpLeg  -0.590068 0.968936 7.95778
LeftLeg  10.0554 -11.0728 2.25527
LeftFoot  -13.782 -0.219071 -14.0848
LeftToes  3.40148e-010 1.80944e-010 1.01921e-010
6
root  -3.96695 38.9705 11.3726 -179.945 52.6194 176.897
RightUpLeg  -19.889 -11.6159 -4.06513
RightLeg  21.0363 -11.5795 -5.07893
RightFoot  -0.725034 -0.841387 8.98338
RightToes  -1.39699e-009 0 -3.6325e-017
Spine  10.6557 -0.0531366 -14.3568
Spine1  30.2398 -2.73348 1.67016
HEad  -33.7953 41.7401 -21.6336
LeftShoulder1  2.81436 -7.94794 -17.9861
LeftArm  7.69996 -16.1449 -57.5059
LeftForeArm  14.0231 -76.876 -67.1836
LeftHand  -0.310482 3.75193 21.6252
RightShoulder  0.764752 0.763824 10.7796
RightArm  1.40629 -5.27059 60.9986
RightForeArm  137.028 67.4862 152.515
RightHand  -1.53311 4.55023 -18.045
LeftUpLeg  -0.447902 0.963528 7.93112
LeftLeg  10.0656 -10.897 2.27519
LeftFoot  -13.8332 -0.224475 -14.0571
LeftToes  3.40148e-010 1.80944e-010 1.01921e-010
7
root  -3.95886 38.9675 11.3538 -179.979 52.7699 176.87
RightUpLeg  -19.902 -11.5669 -4.08376
RightLeg  21.0833 -11.4822 -5.04994
RightFoot  -0.756487 -0.838891 8.97482
RightToes  -1.39699e-009 0 -3.6325e-017
Spine  10.6755 -0.07376 -14.3417
Spine1  30.2381 -2.75042 1.65498
HEad  -33.9138 41.8176 -21.6921
LeftShoulder1  2.81763 -7.94221 -18.0303
LeftArm  7.57319 -16.2127 -57.4313
LeftForeArm  14.3128 -76.9115 -67.6037
LeftHand  -0.304825 3.79077 21.7387
RightShoulder  0.763666 0.755433 10.7428
RightArm  1.22521 -5.08308 60.9318
RightForeArm  136.926 67.4633 152.532
RightHand  -1.53201 4.5452 -18.0413
LeftUpLeg  -0.371738 0.902056 7.87578
LeftLeg  10.0802 -10.6966 2.31653
LeftFoot  -13.8818 -0.230052 -14.0516
LeftToes  3.40148e-010 1.80944e-010 1.01921e-010
8
root  -3.94794 38.9643 11.3399 -179.93 52.8862 176.882
RightUpLeg  -19.9624 -11.4669 -4.06761
RightLeg  21.1319 -11.4681 -5.05552
RightFoot  -0.780799 -0.837596 8.98328
RightToes  -1.39699e-009 0 -3.6325e-017
Spine  10.6336 -0.0994873 -14.3401
Spine1  30.2747 -2.7858 1.67979
HEad  -34.0527 41.9016 -21.7398
LeftShoulder1  2.81783 -8.00257 -17.8926
LeftArm  7.42295 -16.2163 -57.476
LeftForeArm  14.8556 -76.963 -68.1848
LeftHand  -0.32045 3.72669 22
RightShoulder  0.763474 0.743042 10.7076
RightArm  1.06441 -4.93973 60.9369
RightForeArm  136.793 67.4503 152.533
RightHand  -1.55149 4.53749 -18.2769
LeftUpLeg  -0.374419 0.84087 7.85763
LeftLeg  10.1207 -10.5293 2.34901
LeftFoot  -13.9268 -0.235692 -14.0674
LeftToes  3.40148e-010 1.80944e-010 1.01921e-010
9
root  -3.9317 38.9612 11.3266 -179.855 52.9811 176.919
RightUpLeg  -20.0169 -11.3567 -4.03386
RightLeg  21.1817 -11.4794 -5.07194
RightFoot  -0.808076 -0.835649 8.98952
RightToes  -1.39699e-009 0 -3.6325e-017
Spine  10.5591 -0.131245 -14.3561
Spine1  30.3281 -2.84337 1.74027
HEad  -34.1809 42.0223 -21.842
LeftShoulder1  2.82492 -8.08133 -17.7783
LeftArm  7.23793 -16.2637 -57.546
LeftForeArm  14.9706 -76.9653 -68.1746
LeftHand  -0.358697 3.54549 22.2548
RightShoulder  0.763689 0.758137 10.6565
RightArm  0.884178 -4.81412 60.9706
RightForeArm  136.77 67.4945 152.474
RightHand  -1.57606 4.56034 -18.5164
LeftUpLeg  -0.388864 0.800641 7.87292
LeftLeg  10.1765 -10.3905 2.35911
LeftFoot  -13.9749 -0.241647 -14.0809
LeftToes  3.40148e-010 1.80944e-010 1.01921e-010
10
root  -3.91299 38.9576 11.3051 -179.829 53.0847 176.957
RightUpLeg  -20.0152 -11.3341 -4.00947
RightLeg  21.2396 -11.3968 -5.05119
RightFoot  -0.853906 -0.830877 8.97103
RightToes  -1.39699e-009 0 -3.6325e-017
Spine  10.5212 -0.183424 -14.3239
Spine1  30.3597 -2.89806 1.74687
HEad  -34.2712 42.1797 -21.991
LeftShoulder1  2.83934 -8.11809 -17.8292
LeftArm  7.09176 -16.3836 -57.5134
LeftForeArm  14.6381 -76.926 -67.6938
LeftHand  -0.398228 3.35444 22.4312
RightShoulder  0.763972 0.786293 10.6346
RightArm  0.703644 -4.67436 60.9521
RightForeArm  136.791 67.5599 152.392
RightHand  -1.58464 4.57778 -18.583
LeftUpLeg  -0.339055 0.746726 7.87942
LeftLeg  10.2434 -10.2315 2.36948
LeftFoot  -14.0481 -0.250369 -14.0859
LeftToes  3.40148e-010 1.80944e-010 1.01921e-010
11
root  -3.89435 38.9518 11.2781 -179.85 53.2524 177.016
RightUpLeg  -19.9593 -11.3565 -3.97604
RightLeg  21.3043 -11.2144 -4.9902
RightFoot  -0.913258 -0.822163 8.92357
RightToes  -1.39699e-009 0 -3.6325e-017
Spine  10.5322 -0.226145 -14.2019
Spine1  30.4056 -2.89513 1.65907
HEad  -34.3839 42.3224 -22.2036
LeftShoulder1  2.84355 -8.12735 -17.8473
LeftArm  7.00672 -16.5333 -57.4778
LeftForeArm  14.219 -76.8946 -67.3835
LeftHand  -0.376492 3.45938 22.3285
RightShoulder  0.760726 0.757076 10.6784
RightArm  0.565392 -4.48848 60.8783
RightForeArm  136.785 67.5784 152.367
RightHand  -1.56095 4.52473 -18.4071
LeftUpLeg  -0.210352 0.700447 7.89148
LeftLeg  10.333 -10.0434 2.38323
LeftFoot  -14.1565 -0.263192 -14.089
LeftToes  3.40148e-010 1.80944e-010 1.01921e-010
